<svg xmlns="http://www.w3.org/2000/svg" width="800" height="600" viewBox="0 0 800 600" role="img" aria-label="Folded Formats (sample mockup)"><defs><linearGradient id="bg" x1="0" y1="0" x2="0" y2="1"><stop offset="0" stop-color="#eef2f7"/><stop offset="1" stop-color="#dbe2ea"/></linearGradient><filter id="sh" x="-30%" y="-30%" width="160%" height="160%"><feDropShadow dx="0" dy="16" stdDeviation="16" flood-color="#0f172a" flood-opacity="0.28"/></filter></defs><rect width="800" height="600" fill="url(#bg)"/><polygon points="150,150 320,120 320,470 150,500" fill="#e5e7eb" filter="url(#sh)"/><polygon points="320,120 500,120 500,470 320,470" fill="#ffffff"/><polygon points="500,120 660,150 660,500 500,470" fill="#eef2f7"/><rect x="350" y="160" width="120" height="70" rx="4" fill="#6366f1"/><rect x="350" y="246" width="120" height="9" rx="4" fill="#64748b" opacity="0.6"/><rect x="350" y="266" width="90" height="9" rx="4" fill="#64748b" opacity="0.6"/><rect x="350" y="286" width="120" height="9" rx="4" fill="#64748b" opacity="0.6"/><rect x="186" y="200" width="100" height="9" rx="4" fill="#94a3b8" opacity="0.6"/><rect x="186" y="220" width="80" height="9" rx="4" fill="#94a3b8" opacity="0.6"/><rect x="528" y="200" width="100" height="9" rx="4" fill="#94a3b8" opacity="0.6"/><rect x="528" y="220" width="80" height="9" rx="4" fill="#94a3b8" opacity="0.6"/><rect x="0" y="540" width="800" height="60" fill="#0f172a" opacity="0.82"/><text x="40" y="578" font-family="Helvetica,Arial,sans-serif" font-size="30" font-weight="700" fill="#ffffff">Folded Formats</text><text x="760" y="577" text-anchor="end" font-family="Helvetica,Arial,sans-serif" font-size="19" fill="#cbd5e1">ProCardCrafters &#183; sample mockup</text></svg>