<svg xmlns="http://www.w3.org/2000/svg" width="800" height="600" viewBox="0 0 800 600" role="img" aria-label="Recycled Uncoated (sample mockup)"><defs><linearGradient id="bg" x1="0" y1="0" x2="0" y2="1"><stop offset="0" stop-color="#eef2f7"/><stop offset="1" stop-color="#dbe2ea"/></linearGradient><filter id="sh" x="-30%" y="-30%" width="160%" height="160%"><feDropShadow dx="0" dy="16" stdDeviation="18" flood-color="#0f172a" flood-opacity="0.3"/></filter><pattern id="fiber" width="40" height="40" patternUnits="userSpaceOnUse"><rect width="40" height="40" fill="#cbb189"/><circle cx="8" cy="10" r="1.4" fill="#8a6d43" opacity="0.5"/><circle cx="26" cy="22" r="1.1" fill="#6b5430" opacity="0.5"/><circle cx="16" cy="32" r="1.6" fill="#a98a5c" opacity="0.5"/><circle cx="34" cy="6" r="1.0" fill="#7c6238" opacity="0.5"/></pattern></defs><rect width="800" height="600" fill="url(#bg)"/><g transform="rotate(-4 400 280)"><rect x="262" y="70" width="276" height="392" rx="6" fill="#a98a5c" filter="url(#sh)"/><rect x="270" y="70" width="268" height="392" rx="6" fill="url(#fiber)"/><rect x="290" y="92" width="228" height="120" rx="4" fill="#5b7553" opacity="0.92"/><text x="404" y="166" text-anchor="middle" font-family="Helvetica,Arial,sans-serif" font-size="22" font-weight="800" fill="#f0ead6">ECO</text><rect x="290" y="224" width="170" height="13" rx="6" fill="#5b7553"/><rect x="290" y="252" width="140" height="9" rx="4" fill="#6b5430" opacity="0.55"/><rect x="290" y="278" width="210" height="9" rx="4" fill="#6b5430" opacity="0.55"/><rect x="290" y="304" width="210" height="9" rx="4" fill="#6b5430" opacity="0.55"/><rect x="290" y="330" width="140" height="9" rx="4" fill="#6b5430" opacity="0.55"/><rect x="290" y="356" width="210" height="9" rx="4" fill="#6b5430" opacity="0.55"/><rect x="290" y="382" width="210" height="9" rx="4" fill="#6b5430" opacity="0.55"/><rect x="290" y="408" width="140" height="9" rx="4" fill="#6b5430" opacity="0.55"/></g><rect x="0" y="540" width="800" height="60" fill="#0f172a" opacity="0.82"/><text x="40" y="578" font-family="Helvetica,Arial,sans-serif" font-size="30" font-weight="700" fill="#ffffff">Recycled Uncoated</text><text x="760" y="577" text-anchor="end" font-family="Helvetica,Arial,sans-serif" font-size="19" fill="#cbd5e1">ProCardCrafters &#183; sample mockup</text></svg>