<svg xmlns="http://www.w3.org/2000/svg" width="800" height="600" viewBox="0 0 800 600" role="img" aria-label="Silk Matte Coating (sample mockup)"><defs><linearGradient id="bg" x1="0" y1="0" x2="0" y2="1"><stop offset="0" stop-color="#eef2f7"/><stop offset="1" stop-color="#dbe2ea"/></linearGradient><filter id="sh" x="-30%" y="-30%" width="160%" height="160%"><feDropShadow dx="0" dy="16" stdDeviation="18" flood-color="#0f172a" flood-opacity="0.3"/></filter></defs><rect width="800" height="600" fill="url(#bg)"/><g transform="rotate(-4 400 280)"><rect x="262" y="70" width="276" height="392" rx="6" fill="#e2e8f0" filter="url(#sh)"/><rect x="270" y="70" width="268" height="392" rx="6" fill="#f4f1ec"/><rect x="290" y="92" width="228" height="120" rx="4" fill="#0d9488" opacity="0.9"/><text x="404" y="166" text-anchor="middle" font-family="Helvetica,Arial,sans-serif" font-size="26" font-weight="800" fill="#ffffff">PROMO</text><rect x="290" y="224" width="180" height="14" rx="6" fill="#0f766e"/><rect x="290" y="250" width="230" height="9" rx="4" fill="#64748b" opacity="0.55"/><rect x="290" y="276" width="230" height="9" rx="4" fill="#64748b" opacity="0.55"/><rect x="290" y="302" width="150" height="9" rx="4" fill="#64748b" opacity="0.55"/><rect x="290" y="328" width="230" height="9" rx="4" fill="#64748b" opacity="0.55"/><rect x="290" y="354" width="230" height="9" rx="4" fill="#64748b" opacity="0.55"/><rect x="290" y="380" width="150" height="9" rx="4" fill="#64748b" opacity="0.55"/><rect x="290" y="406" width="230" height="9" rx="4" fill="#64748b" opacity="0.55"/><rect x="270" y="70" width="268" height="392" rx="6" fill="#000000" opacity="0.015"/></g><rect x="0" y="540" width="800" height="60" fill="#0f172a" opacity="0.82"/><text x="40" y="578" font-family="Helvetica,Arial,sans-serif" font-size="30" font-weight="700" fill="#ffffff">Silk Matte Coating</text><text x="760" y="577" text-anchor="end" font-family="Helvetica,Arial,sans-serif" font-size="19" fill="#cbd5e1">ProCardCrafters &#183; sample mockup</text></svg>