<svg xmlns="http://www.w3.org/2000/svg" width="800" height="600" viewBox="0 0 800 600" role="img" aria-label="Spot UV Accents (sample mockup)"><defs><linearGradient id="bg" x1="0" y1="0" x2="0" y2="1"><stop offset="0" stop-color="#eef2f7"/><stop offset="1" stop-color="#dbe2ea"/></linearGradient><filter id="sh" x="-30%" y="-30%" width="160%" height="160%"><feDropShadow dx="0" dy="16" stdDeviation="18" flood-color="#0f172a" flood-opacity="0.3"/></filter><radialGradient id="spot" cx="0.5" cy="0.4" r="0.7"><stop offset="0" stop-color="#ffffff" stop-opacity="0.9"/><stop offset="0.5" stop-color="#ffffff" stop-opacity="0.15"/><stop offset="1" stop-color="#ffffff" stop-opacity="0"/></radialGradient></defs><rect width="800" height="600" fill="url(#bg)"/><g transform="rotate(-4 400 280)"><rect x="262" y="70" width="276" height="392" rx="6" fill="#0f172a" filter="url(#sh)"/><rect x="270" y="70" width="268" height="392" rx="6" fill="#1e293b"/><rect x="290" y="250" width="140" height="9" rx="4" fill="#64748b" opacity="0.6"/><rect x="290" y="276" width="210" height="9" rx="4" fill="#64748b" opacity="0.6"/><rect x="290" y="302" width="210" height="9" rx="4" fill="#64748b" opacity="0.6"/><rect x="290" y="328" width="140" height="9" rx="4" fill="#64748b" opacity="0.6"/><rect x="290" y="354" width="210" height="9" rx="4" fill="#64748b" opacity="0.6"/><rect x="290" y="380" width="210" height="9" rx="4" fill="#64748b" opacity="0.6"/><rect x="290" y="406" width="140" height="9" rx="4" fill="#64748b" opacity="0.6"/><circle cx="404" cy="160" r="62" fill="#0b1220"/><circle cx="404" cy="160" r="62" fill="url(#spot)"/><path d="M376 160 L398 184 L436 136" fill="none" stroke="#e2e8f0" stroke-width="12" stroke-linecap="round" stroke-linejoin="round"/><text x="404" y="446" text-anchor="middle" font-family="Helvetica,Arial,sans-serif" font-size="16" fill="#94a3b8">gloss accent over matte</text></g><rect x="0" y="540" width="800" height="60" fill="#0f172a" opacity="0.82"/><text x="40" y="578" font-family="Helvetica,Arial,sans-serif" font-size="30" font-weight="700" fill="#ffffff">Spot UV Accents</text><text x="760" y="577" text-anchor="end" font-family="Helvetica,Arial,sans-serif" font-size="19" fill="#cbd5e1">ProCardCrafters &#183; sample mockup</text></svg>