<svg xmlns="http://www.w3.org/2000/svg" width="800" height="600" viewBox="0 0 800 600" role="img" aria-label="Foamboard Mounted (sample mockup)"><defs><linearGradient id="wall" x1="0" y1="0" x2="0" y2="1"><stop offset="0" stop-color="#f1f0ec"/><stop offset="1" stop-color="#d9d6cf"/></linearGradient><filter id="sh" x="-40%" y="-40%" width="180%" height="180%"><feDropShadow dx="14" dy="20" stdDeviation="14" flood-color="#0f172a" flood-opacity="0.32"/></filter><linearGradient id="fbph" x1="0" y1="0" x2="1" y2="1"><stop offset="0" stop-color="#0369a1"/><stop offset="1" stop-color="#075985"/></linearGradient></defs><rect width="800" height="600" fill="url(#wall)"/><rect x="0" y="470" width="800" height="70" fill="#0000000a"/><polygon points="200,90 560,90 590,118 230,118" fill="#f8fafc"/><polygon points="560,90 560,470 590,498 590,118" fill="#e2e8f0"/><rect x="200" y="90" width="360" height="380" fill="#ffffff" filter="url(#sh)"/><rect x="200" y="90" width="360" height="380" fill="url(#fbph)"/><text x="380" y="270" text-anchor="middle" font-family="Helvetica,Arial,sans-serif" font-size="44" font-weight="900" fill="#ffffff">EVENT</text><rect x="280" y="300" width="200" height="10" rx="5" fill="#bae6fd"/><rect x="300" y="324" width="160" height="10" rx="5" fill="#bae6fd"/><text x="610" y="320" font-family="Helvetica,Arial,sans-serif" font-size="20" font-weight="700" fill="#475569">rigid</text><text x="610" y="346" font-family="Helvetica,Arial,sans-serif" font-size="20" font-weight="700" fill="#475569">mount</text><rect x="0" y="540" width="800" height="60" fill="#0f172a" opacity="0.82"/><text x="40" y="578" font-family="Helvetica,Arial,sans-serif" font-size="30" font-weight="700" fill="#ffffff">Foamboard Mounted</text><text x="760" y="577" text-anchor="end" font-family="Helvetica,Arial,sans-serif" font-size="19" fill="#cbd5e1">ProCardCrafters &#183; sample mockup</text></svg>