<svg xmlns="http://www.w3.org/2000/svg" width="800" height="600" viewBox="0 0 800 600" role="img" aria-label="Large Format A1 / A0 (sample mockup)"><defs><linearGradient id="wall" x1="0" y1="0" x2="0" y2="1"><stop offset="0" stop-color="#f1f0ec"/><stop offset="1" stop-color="#d9d6cf"/></linearGradient><filter id="sh" x="-30%" y="-30%" width="160%" height="160%"><feDropShadow dx="0" dy="18" stdDeviation="20" flood-color="#0f172a" flood-opacity="0.3"/></filter><linearGradient id="lf" x1="0" y1="0" x2="1" y2="1"><stop offset="0" stop-color="#1e293b"/><stop offset="1" stop-color="#0b1220"/></linearGradient></defs><rect width="800" height="600" fill="url(#wall)"/><rect x="0" y="470" width="800" height="70" fill="#0000000a"/><rect x="120" y="60" width="360" height="430" fill="#0f172a" filter="url(#sh)"/><rect x="120" y="60" width="360" height="430" fill="url(#lf)"/><text x="300" y="230" text-anchor="middle" font-family="Helvetica,Arial,sans-serif" font-size="68" font-weight="900" fill="#ffffff">BIG</text><text x="300" y="300" text-anchor="middle" font-family="Helvetica,Arial,sans-serif" font-size="34" font-weight="700" fill="#38bdf8" letter-spacing="4">FORMAT</text><rect x="160" y="350" width="280" height="10" rx="5" fill="#475569"/><rect x="160" y="374" width="220" height="10" rx="5" fill="#475569"/><g fill="#94a3b8" opacity="0.9"><circle cx="600" cy="300" r="26"/><rect x="576" y="332" width="48" height="120" rx="20"/><rect x="582" y="448" width="14" height="40"/><rect x="604" y="448" width="14" height="40"/></g><line x1="660" y1="60" x2="660" y2="490" stroke="#64748b" stroke-width="2"/><text x="672" y="280" font-family="Helvetica,Arial,sans-serif" font-size="22" font-weight="700" fill="#475569">A0 / A1</text><rect x="0" y="540" width="800" height="60" fill="#0f172a" opacity="0.82"/><text x="40" y="578" font-family="Helvetica,Arial,sans-serif" font-size="30" font-weight="700" fill="#ffffff">Large Format A1 / A0</text><text x="760" y="577" text-anchor="end" font-family="Helvetica,Arial,sans-serif" font-size="19" fill="#cbd5e1">ProCardCrafters &#183; sample mockup</text></svg>