<svg xmlns="http://www.w3.org/2000/svg" width="800" height="600" viewBox="0 0 800 600" role="img" aria-label="Matte Fine-Art (sample mockup)"><defs><linearGradient id="wall" x1="0" y1="0" x2="0" y2="1"><stop offset="0" stop-color="#f1f0ec"/><stop offset="1" stop-color="#d9d6cf"/></linearGradient><filter id="sh" x="-30%" y="-30%" width="160%" height="160%"><feDropShadow dx="0" dy="14" stdDeviation="16" flood-color="#0f172a" flood-opacity="0.3"/></filter><pattern id="paper" width="8" height="8" patternUnits="userSpaceOnUse"><rect width="8" height="8" fill="#f7f4ee"/><circle cx="2" cy="3" r="0.5" fill="#e6e0d4"/><circle cx="6" cy="6" r="0.5" fill="#e6e0d4"/></pattern></defs><rect width="800" height="600" fill="url(#wall)"/><rect x="0" y="470" width="800" height="70" fill="#0000000a"/><rect x="190" y="70" width="420" height="400" fill="#3f3a33" filter="url(#sh)"/><rect x="214" y="94" width="372" height="352" fill="#fbfaf6"/><rect x="270" y="150" width="260" height="240" fill="url(#paper)"/><rect x="270" y="150" width="260" height="240" fill="none" stroke="#d6cfbf" stroke-width="2"/><circle cx="400" cy="240" r="58" fill="none" stroke="#b08968" stroke-width="6"/><path d="M300 360 L360 280 L400 330 L450 250 L500 360 Z" fill="#9caf88" opacity="0.85"/><text x="400" y="420" text-anchor="middle" font-family="Georgia,serif" font-size="18" fill="#6b6256" font-style="italic">archival matte</text><rect x="0" y="540" width="800" height="60" fill="#0f172a" opacity="0.82"/><text x="40" y="578" font-family="Helvetica,Arial,sans-serif" font-size="30" font-weight="700" fill="#ffffff">Matte Fine-Art</text><text x="760" y="577" text-anchor="end" font-family="Helvetica,Arial,sans-serif" font-size="19" fill="#cbd5e1">ProCardCrafters &#183; sample mockup</text></svg>