<svg xmlns="http://www.w3.org/2000/svg" width="800" height="600" viewBox="0 0 800 600" role="img" aria-label="Glossy UV Laminate (sample mockup)"><defs><linearGradient id="bg" x1="0" y1="0" x2="0" y2="1"><stop offset="0" stop-color="#e2e8f0"/><stop offset="1" stop-color="#cbd5e1"/></linearGradient><filter id="sh" x="-30%" y="-30%" width="160%" height="160%"><feDropShadow dx="0" dy="14" stdDeviation="16" flood-color="#0f172a" flood-opacity="0.28"/></filter><linearGradient id="glossfill" x1="0" y1="0" x2="1" y2="1"><stop offset="0" stop-color="#2563eb"/><stop offset="1" stop-color="#1e3a8a"/></linearGradient><linearGradient id="glosshi" x1="0" y1="0" x2="0" y2="1"><stop offset="0" stop-color="#ffffff" stop-opacity="0.85"/><stop offset="0.4" stop-color="#ffffff" stop-opacity="0.05"/><stop offset="1" stop-color="#ffffff" stop-opacity="0"/></linearGradient></defs><rect width="800" height="600" fill="url(#bg)"/><rect x="248" y="120" width="304" height="304" rx="40" fill="url(#glossfill)" filter="url(#sh)"/><rect x="262" y="134" width="276" height="276" rx="30" fill="none" stroke="#ffffff" stroke-width="6" stroke-dasharray="2 0"/><circle cx="400" cy="250" r="58" fill="none" stroke="#ffffff" stroke-width="14"/><path d="M372 250 L394 274 L432 226" fill="none" stroke="#ffffff" stroke-width="16" stroke-linecap="round" stroke-linejoin="round"/><text x="400" y="350" text-anchor="middle" font-family="Helvetica,Arial,sans-serif" font-size="34" font-weight="800" fill="#ffffff" letter-spacing="3">BRAND</text><path d="M262 134 H538 a16 16 0 0 1 16 16 V250 C470 220 360 300 262 260 Z" fill="url(#glosshi)"/><rect x="0" y="540" width="800" height="60" fill="#0f172a" opacity="0.82"/><text x="40" y="578" font-family="Helvetica,Arial,sans-serif" font-size="30" font-weight="700" fill="#ffffff">Glossy UV Laminate</text><text x="760" y="577" text-anchor="end" font-family="Helvetica,Arial,sans-serif" font-size="19" fill="#cbd5e1">ProCardCrafters &#183; sample mockup</text></svg>