<svg xmlns="http://www.w3.org/2000/svg" width="800" height="600" viewBox="0 0 800 600" role="img" aria-label="Kiss-Cut Sheets (sample mockup)"><defs><linearGradient id="bg" x1="0" y1="0" x2="0" y2="1"><stop offset="0" stop-color="#e2e8f0"/><stop offset="1" stop-color="#cbd5e1"/></linearGradient><filter id="sh" x="-30%" y="-30%" width="160%" height="160%"><feDropShadow dx="0" dy="12" stdDeviation="14" flood-color="#0f172a" flood-opacity="0.25"/></filter></defs><rect width="800" height="600" fill="url(#bg)"/><rect x="150" y="80" width="500" height="380" rx="10" fill="#ffffff" filter="url(#sh)"/><circle cx="248" cy="170" r="56" fill="#f97316"/><circle cx="248" cy="170" r="64" fill="none" stroke="#94a3b8" stroke-width="2" stroke-dasharray="6 5"/><text x="248" y="180" text-anchor="middle" font-family="Helvetica,Arial,sans-serif" font-size="22" font-weight="800" fill="#ffffff">★</text><circle cx="400" cy="170" r="56" fill="#0ea5e9"/><circle cx="400" cy="170" r="64" fill="none" stroke="#94a3b8" stroke-width="2" stroke-dasharray="6 5"/><text x="400" y="180" text-anchor="middle" font-family="Helvetica,Arial,sans-serif" font-size="22" font-weight="800" fill="#ffffff">★</text><circle cx="552" cy="170" r="56" fill="#22c55e"/><circle cx="552" cy="170" r="64" fill="none" stroke="#94a3b8" stroke-width="2" stroke-dasharray="6 5"/><text x="552" y="180" text-anchor="middle" font-family="Helvetica,Arial,sans-serif" font-size="22" font-weight="800" fill="#ffffff">★</text><circle cx="248" cy="320" r="56" fill="#a855f7"/><circle cx="248" cy="320" r="64" fill="none" stroke="#94a3b8" stroke-width="2" stroke-dasharray="6 5"/><text x="248" y="330" text-anchor="middle" font-family="Helvetica,Arial,sans-serif" font-size="22" font-weight="800" fill="#ffffff">★</text><circle cx="400" cy="320" r="56" fill="#ef4444"/><circle cx="400" cy="320" r="64" fill="none" stroke="#94a3b8" stroke-width="2" stroke-dasharray="6 5"/><text x="400" y="330" text-anchor="middle" font-family="Helvetica,Arial,sans-serif" font-size="22" font-weight="800" fill="#ffffff">★</text><circle cx="552" cy="320" r="56" fill="#eab308"/><circle cx="552" cy="320" r="64" fill="none" stroke="#94a3b8" stroke-width="2" stroke-dasharray="6 5"/><text x="552" y="330" text-anchor="middle" font-family="Helvetica,Arial,sans-serif" font-size="22" font-weight="800" fill="#ffffff">★</text><rect x="0" y="540" width="800" height="60" fill="#0f172a" opacity="0.82"/><text x="40" y="578" font-family="Helvetica,Arial,sans-serif" font-size="30" font-weight="700" fill="#ffffff">Kiss-Cut Sheets</text><text x="760" y="577" text-anchor="end" font-family="Helvetica,Arial,sans-serif" font-size="19" fill="#cbd5e1">ProCardCrafters &#183; sample mockup</text></svg>