<svg xmlns="http://www.w3.org/2000/svg" width="176" height="172" viewBox="0 0 176 172" role="img">
  <rect x="0" y="0" width="176" height="136" fill="#fde2e4" opacity="0.5"/>
  <rect x="8" y="8" width="160" height="120" fill="#ffffff" stroke="#0f172a" stroke-width="1.5"/>
  <rect x="16" y="16" width="144" height="104" fill="none" stroke="#0f172a" stroke-width="0.6" stroke-dasharray="3 2" opacity="0.7"/>
  <rect x="22.0" y="22.0" width="3.2" height="82.0" fill="#0f172a"/><rect x="29.8" y="22.0" width="4.8" height="82.0" fill="#0f172a"/><rect x="39.2" y="22.0" width="3.2" height="82.0" fill="#0f172a"/><rect x="47.0" y="22.0" width="1.6" height="82.0" fill="#0f172a"/><rect x="56.4" y="22.0" width="3.2" height="82.0" fill="#0f172a"/><rect x="64.2" y="22.0" width="3.2" height="82.0" fill="#0f172a"/><rect x="75.2" y="22.0" width="1.6" height="82.0" fill="#0f172a"/><rect x="81.4" y="22.0" width="3.2" height="82.0" fill="#0f172a"/><rect x="89.2" y="22.0" width="4.8" height="82.0" fill="#0f172a"/><rect x="100.2" y="22.0" width="1.6" height="82.0" fill="#0f172a"/><text x="88.0" y="116.0" font-size="9" text-anchor="middle" fill="#0f172a" font-family="monospace">8 801234 567890</text>
  <text x="8" y="150" font-size="9" fill="#0f172a" font-family="sans-serif" font-weight="700">바코드 / QR 라벨</text>
  <text x="8" y="163" font-size="8" fill="#64748b" font-family="sans-serif">40 × 30 mm · 아트지 80g · CMYK · 600dpi 권장 · 블리드 2mm(분홍) · 세이프 2mm(점선)</text>
</svg>
